<?xml version="1.0" encoding="UTF-8" standalone="no"?>
<!DOCTYPE svg PUBLIC "-//W3C//DTD SVG 1.1//EN"
 "http://www.w3.org/Graphics/SVG/1.1/DTD/svg11.dtd">
<!-- Generated by graphviz version 2.44.1 (20201121.0304)
 -->
<!-- Title: G Pages: 1 -->
<svg width="924pt" height="942pt"
 viewBox="0.00 0.00 924.00 942.00" xmlns="http://www.w3.org/2000/svg" xmlns:xlink="http://www.w3.org/1999/xlink"><style>
  * {
    fill: transparent !important;
    stroke: rgb(0, 37, 73) !important;
    stroke-width: 1 !important;
  }
  polygon:not(.cluster *, .node *, .edge *, text) {
    stroke: transparent !important;
  }
  text {
    font-size: 10px !important;
    font-family: monospace !important;
    fill: rgb(0, 37, 73) !important;
    stroke: transparent !important;
    transform: translateY(-0.5em);
  }
</style>
<g id="graph0" class="graph" transform="scale(1 1) rotate(0) translate(4 938.2)">
<title>G</title>
<polygon fill="#fdfdfd" stroke="none" points="-4,4 -4,-938.2 919.7,-938.2 919.7,4 -4,4"/>
<text xml:space="preserve" text-anchor="middle" x="457.85" y="4.5" font-family="Arial" font-size="20.00">Beads System Architecture Overview</text>
<!-- User / AI Agents -->
<g id="node1" class="node">
<title>User / AI Agents</title>
<polygon fill="lightblue" stroke="black" points="546.7,-908.15 383.5,-908.15 383.5,-868.85 546.7,-868.85 546.7,-908.15"/>
<text xml:space="preserve" text-anchor="middle" x="465.1" y="-880.45" font-family="Arial" font-size="14.00" fill="white">User / AI Agents</text>
</g>
<!-- Beads CLI (bd) -->
<g id="node2" class="node">
<title>Beads CLI (bd)</title>
<polygon fill="lightblue" stroke="black" points="664.2,-650.15 516,-650.15 516,-610.85 664.2,-610.85 664.2,-650.15"/>
<text xml:space="preserve" text-anchor="middle" x="590.1" y="-622.45" font-family="Arial" font-size="14.00">Beads CLI (bd)</text>
</g>
<!-- User / AI Agents&#45;&gt;Beads CLI (bd) -->
<g id="edge1" class="edge">
<title>User / AI Agents&#45;&gt;Beads CLI (bd)</title>
<path fill="none" stroke="#333333" stroke-width="2" d="M531.35,-857.66C531.35,-857.66 531.35,-661.41 531.35,-661.41"/>
<polygon fill="#333333" stroke="#333333" stroke-width="2" points="528.55,-857.66 531.35,-865.66 534.15,-857.66 528.55,-857.66"/>
<polygon fill="#333333" stroke="#333333" stroke-width="2" points="534.15,-661.41 531.35,-653.41 528.55,-661.41 534.15,-661.41"/>
</g>
<!-- MCP Server (beads&#45;mcp) -->
<g id="node3" class="node">
<title>MCP Server (beads&#45;mcp)</title>
<polygon fill="lightblue" stroke="black" points="444.2,-650.15 236,-650.15 236,-610.85 444.2,-610.85 444.2,-650.15"/>
<text xml:space="preserve" text-anchor="middle" x="340.1" y="-622.45" font-family="Arial" font-size="14.00">MCP Server (beads&#45;mcp)</text>
</g>
<!-- User / AI Agents&#45;&gt;MCP Server (beads&#45;mcp) -->
<g id="edge2" class="edge">
<title>User / AI Agents&#45;&gt;MCP Server (beads&#45;mcp)</title>
<path fill="none" stroke="#333333" stroke-width="2" d="M413.85,-868.68C413.85,-868.68 413.85,-661.41 413.85,-661.41"/>
<polygon fill="#333333" stroke="#333333" stroke-width="2" points="416.65,-661.41 413.85,-653.41 411.05,-661.41 416.65,-661.41"/>
</g>
<!-- Beads Daemon -->
<g id="node4" class="node">
<title>Beads Daemon</title>
<polygon fill="lightblue" stroke="black" points="443.7,-379.15 310.5,-379.15 310.5,-339.85 443.7,-339.85 443.7,-379.15"/>
<text xml:space="preserve" text-anchor="middle" x="377.1" y="-351.45" font-family="Arial" font-size="14.00">Beads Daemon</text>
</g>
<!-- Beads CLI (bd)&#45;&gt;Beads Daemon -->
<g id="edge3" class="edge">
<title>Beads CLI (bd)&#45;&gt;Beads Daemon</title>
<path fill="none" stroke="#333333" stroke-width="2" d="M543.73,-599.43C543.73,-599.43 543.73,-369.5 543.73,-369.5 543.73,-369.5 454.94,-369.5 454.94,-369.5"/>
<polygon fill="#333333" stroke="#333333" stroke-width="2" points="540.93,-599.43 543.73,-607.43 546.53,-599.43 540.93,-599.43"/>
<polygon fill="#333333" stroke="#333333" stroke-width="2" points="454.94,-366.7 446.94,-369.5 454.94,-372.3 454.94,-366.7"/>
</g>
<!-- Data Persistence Layer\n(SQLite/Dolt, JSONL, Git Repo) -->
<g id="node5" class="node">
<title>Data Persistence Layer\n(SQLite/Dolt, JSONL, Git Repo)</title>
<polygon fill="lightblue" stroke="black" points="599.2,-101.4 331,-101.4 331,-51.6 599.2,-51.6 599.2,-101.4"/>
<text xml:space="preserve" text-anchor="middle" x="465.1" y="-73.7" font-family="Arial" font-size="14.00">Data Persistence Layer</text>
<text xml:space="preserve" text-anchor="middle" x="465.1" y="-63.2" font-family="Arial" font-size="14.00">(SQLite/Dolt, JSONL, Git Repo)</text>
</g>
<!-- Beads CLI (bd)&#45;&gt;Data Persistence Layer\n(SQLite/Dolt, JSONL, Git Repo) -->
<g id="edge4" class="edge">
<title>Beads CLI (bd)&#45;&gt;Data Persistence Layer\n(SQLite/Dolt, JSONL, Git Repo)</title>
<path fill="none" stroke="#333333" stroke-width="2" d="M571.47,-599.43C571.47,-599.43 571.47,-112.76 571.47,-112.76"/>
<polygon fill="#333333" stroke="#333333" stroke-width="2" points="568.67,-599.43 571.47,-607.43 574.27,-599.43 568.67,-599.43"/>
<polygon fill="#333333" stroke="#333333" stroke-width="2" points="574.27,-112.76 571.47,-104.76 568.67,-112.76 574.27,-112.76"/>
</g>
<!-- Workflow Engine\n(Formulas, Molecules, Wisps) -->
<g id="node6" class="node">
<title>Workflow Engine\n(Formulas, Molecules, Wisps)</title>
<polygon fill="lightblue" stroke="black" points="915.7,-384.4 662.5,-384.4 662.5,-334.6 915.7,-334.6 915.7,-384.4"/>
<text xml:space="preserve" text-anchor="middle" x="789.1" y="-356.7" font-family="Arial" font-size="14.00">Workflow Engine</text>
<text xml:space="preserve" text-anchor="middle" x="789.1" y="-346.2" font-family="Arial" font-size="14.00">(Formulas, Molecules, Wisps)</text>
</g>
<!-- Beads CLI (bd)&#45;&gt;Workflow Engine\n(Formulas, Molecules, Wisps) -->
<g id="edge5" class="edge">
<title>Beads CLI (bd)&#45;&gt;Workflow Engine\n(Formulas, Molecules, Wisps)</title>
<path fill="none" stroke="#333333" stroke-width="2" d="M646.67,-610.74C646.67,-546.78 646.67,-349.5 646.67,-349.5 646.67,-349.5 651.16,-349.5 651.16,-349.5"/>
<polygon fill="#333333" stroke="#333333" stroke-width="2" points="651.16,-352.3 659.16,-349.5 651.16,-346.7 651.16,-352.3"/>
</g>
<!-- System Management\n(Config, Setup, Doctor) -->
<g id="node7" class="node">
<title>System Management\n(Config, Setup, Doctor)</title>
<polygon fill="lightblue" stroke="black" points="886.95,-101.4 671.25,-101.4 671.25,-51.6 886.95,-51.6 886.95,-101.4"/>
<text xml:space="preserve" text-anchor="middle" x="779.1" y="-73.7" font-family="Arial" font-size="14.00">System Management</text>
<text xml:space="preserve" text-anchor="middle" x="779.1" y="-63.2" font-family="Arial" font-size="14.00">(Config, Setup, Doctor)</text>
</g>
<!-- Beads CLI (bd)&#45;&gt;System Management\n(Config, Setup, Doctor) -->
<g id="edge6" class="edge">
<title>Beads CLI (bd)&#45;&gt;System Management\n(Config, Setup, Doctor)</title>
<path fill="none" stroke="#333333" stroke-width="2" d="M630.85,-599.33C630.85,-599.33 630.85,-91.5 630.85,-91.5 630.85,-91.5 659.94,-91.5 659.94,-91.5"/>
<polygon fill="#333333" stroke="#333333" stroke-width="2" points="628.05,-599.33 630.85,-607.33 633.65,-599.33 628.05,-599.33"/>
<polygon fill="#333333" stroke="#333333" stroke-width="2" points="659.94,-94.3 667.94,-91.5 659.94,-88.7 659.94,-94.3"/>
</g>
<!-- External Integrations\n(GitLab, Linear, AI Tools) -->
<g id="node8" class="node">
<title>External Integrations\n(GitLab, Linear, AI Tools)</title>
<polygon fill="lightblue" stroke="black" points="238.2,-384.4 0,-384.4 0,-334.6 238.2,-334.6 238.2,-384.4"/>
<text xml:space="preserve" text-anchor="middle" x="119.1" y="-356.7" font-family="Arial" font-size="14.00">External Integrations</text>
<text xml:space="preserve" text-anchor="middle" x="119.1" y="-346.2" font-family="Arial" font-size="14.00">(GitLab, Linear, AI Tools)</text>
</g>
<!-- MCP Server (beads&#45;mcp)&#45;&gt;External Integrations\n(GitLab, Linear, AI Tools) -->
<g id="edge10" class="edge">
<title>MCP Server (beads&#45;mcp)&#45;&gt;External Integrations\n(GitLab, Linear, AI Tools)</title>
<path fill="none" stroke="#333333" stroke-width="2" d="M274.35,-599.55C274.35,-599.55 274.35,-359.5 274.35,-359.5 274.35,-359.5 249.37,-359.5 249.37,-359.5"/>
<polygon fill="#333333" stroke="#333333" stroke-width="2" points="271.55,-599.55 274.35,-607.55 277.15,-599.55 271.55,-599.55"/>
<polygon fill="#333333" stroke="#333333" stroke-width="2" points="249.37,-356.7 241.37,-359.5 249.37,-362.3 249.37,-356.7"/>
</g>
<!-- Beads Daemon&#45;&gt;MCP Server (beads&#45;mcp) -->
<g id="edge8" class="edge">
<title>Beads Daemon&#45;&gt;MCP Server (beads&#45;mcp)</title>
<path fill="none" stroke="#333333" stroke-width="2" d="M377.1,-390.45C377.1,-390.45 377.1,-599.52 377.1,-599.52"/>
<polygon fill="#333333" stroke="#333333" stroke-width="2" points="379.9,-390.45 377.1,-382.45 374.3,-390.45 379.9,-390.45"/>
<polygon fill="#333333" stroke="#333333" stroke-width="2" points="374.3,-599.52 377.1,-607.52 379.9,-599.52 374.3,-599.52"/>
</g>
<!-- Beads Daemon&#45;&gt;Data Persistence Layer\n(SQLite/Dolt, JSONL, Git Repo) -->
<g id="edge7" class="edge">
<title>Beads Daemon&#45;&gt;Data Persistence Layer\n(SQLite/Dolt, JSONL, Git Repo)</title>
<path fill="none" stroke="#333333" stroke-width="2" d="M387.35,-328.57C387.35,-328.57 387.35,-112.56 387.35,-112.56"/>
<polygon fill="#333333" stroke="#333333" stroke-width="2" points="384.55,-328.57 387.35,-336.57 390.15,-328.57 384.55,-328.57"/>
<polygon fill="#333333" stroke="#333333" stroke-width="2" points="390.15,-112.56 387.35,-104.56 384.55,-112.56 390.15,-112.56"/>
</g>
<!-- Beads Daemon&#45;&gt;System Management\n(Config, Setup, Doctor) -->
<g id="edge9" class="edge">
<title>Beads Daemon&#45;&gt;System Management\n(Config, Setup, Doctor)</title>
<path fill="none" stroke="#333333" stroke-width="2" d="M444.01,-359.5C514.38,-359.5 615.03,-359.5 615.03,-359.5 615.03,-359.5 615.03,-81.5 615.03,-81.5 615.03,-81.5 660,-81.5 660,-81.5"/>
<polygon fill="#333333" stroke="#333333" stroke-width="2" points="660,-84.3 668,-81.5 660,-78.7 660,-84.3"/>
</g>
<!-- Data Persistence Layer\n(SQLite/Dolt, JSONL, Git Repo)&#45;&gt;System Management\n(Config, Setup, Doctor) -->
<g id="edge13" class="edge">
<title>Data Persistence Layer\n(SQLite/Dolt, JSONL, Git Repo)&#45;&gt;System Management\n(Config, Setup, Doctor)</title>
<path fill="none" stroke="#333333" stroke-width="2" d="M599.63,-61.5C599.63,-61.5 659.87,-61.5 659.87,-61.5"/>
<polygon fill="#333333" stroke="#333333" stroke-width="2" points="659.87,-64.3 667.87,-61.5 659.87,-58.7 659.87,-64.3"/>
</g>
<!-- Data Persistence Layer\n(SQLite/Dolt, JSONL, Git Repo)&#45;&gt;External Integrations\n(GitLab, Linear, AI Tools) -->
<g id="edge12" class="edge">
<title>Data Persistence Layer\n(SQLite/Dolt, JSONL, Git Repo)&#45;&gt;External Integrations\n(GitLab, Linear, AI Tools)</title>
<path fill="none" stroke="#333333" stroke-width="2" d="M319.81,-76.5C319.81,-76.5 119.1,-76.5 119.1,-76.5 119.1,-76.5 119.1,-323.36 119.1,-323.36"/>
<polygon fill="#333333" stroke="#333333" stroke-width="2" points="319.81,-79.3 327.81,-76.5 319.81,-73.7 319.81,-79.3"/>
<polygon fill="#333333" stroke="#333333" stroke-width="2" points="116.3,-323.36 119.1,-331.36 121.9,-323.36 116.3,-323.36"/>
</g>
<!-- Workflow Engine\n(Formulas, Molecules, Wisps)&#45;&gt;Data Persistence Layer\n(SQLite/Dolt, JSONL, Git Repo) -->
<g id="edge11" class="edge">
<title>Workflow Engine\n(Formulas, Molecules, Wisps)&#45;&gt;Data Persistence Layer\n(SQLite/Dolt, JSONL, Git Repo)</title>
<path fill="none" stroke="#333333" stroke-width="2" d="M666.88,-334.19C666.88,-263.92 666.88,-71.5 666.88,-71.5 666.88,-71.5 610.71,-71.5 610.71,-71.5"/>
<polygon fill="#333333" stroke="#333333" stroke-width="2" points="610.71,-68.7 602.71,-71.5 610.71,-74.3 610.71,-68.7"/>
</g>
</g>
</svg>
