<svg xmlns="http://www.w3.org/2000/svg" width="735" height="272" fill="none"><path fill="#f5f5f5" d="M0 0h735v272H0z"/><path fill="#fff" d="M0 0h735v272H0z"/><text xml:space="preserve" fill="#2a2a2a" font-family="Iowan Old Style BT" font-size="16" font-style="italic" letter-spacing="0em" style="white-space:pre"><tspan x="105.406" y="212.208">m</tspan></text><text xml:space="preserve" fill="#2a2a2a" font-family="GT America Trial" font-size="16" letter-spacing="0em" style="white-space:pre"><tspan x="124.219" y="211.936">x</tspan></text><text xml:space="preserve" fill="#2a2a2a" font-family="Iowan Old Style BT" font-size="16" font-style="italic" letter-spacing="0em" style="white-space:pre"><tspan x="139.289" y="212.208">n</tspan></text><text xml:space="preserve" fill="#2a2a2a" font-family="Iowan Old Style BT" font-size="16" font-style="italic" letter-spacing="0em" style="white-space:pre"><tspan x="292.406" y="212.208">m</tspan></text><text xml:space="preserve" fill="#2a2a2a" font-family="GT America Trial" font-size="16" letter-spacing="0em" style="white-space:pre"><tspan x="311.219" y="211.936">x</tspan></text><text xml:space="preserve" fill="#2a2a2a" font-family="Iowan Old Style BT" font-size="16" font-style="italic" letter-spacing="0em" style="white-space:pre"><tspan x="326.422" y="212.208">k</tspan></text><text xml:space="preserve" fill="#2a2a2a" font-family="Iowan Old Style BT" font-size="16" font-style="italic" letter-spacing="0em" style="white-space:pre"><tspan x="430.422" y="212.208">k</tspan></text><text xml:space="preserve" fill="#2a2a2a" font-family="GT America Trial" font-size="16" letter-spacing="0em" style="white-space:pre"><tspan x="445.219" y="211.936">x</tspan></text><text xml:space="preserve" fill="#2a2a2a" font-family="Iowan Old Style BT" font-size="16" font-style="italic" letter-spacing="0em" style="white-space:pre"><tspan x="460.422" y="212.208">k</tspan></text><text xml:space="preserve" fill="#2a2a2a" font-family="Iowan Old Style BT" font-size="16" font-style="italic" letter-spacing="0em" style="white-space:pre"><tspan x="412.445" y="234.208">k </tspan><tspan x="433.398" y="234.208"> rank M</tspan></text><text xml:space="preserve" fill="#2a2a2a" font-family="GT America Trial" font-size="16" font-style="italic" letter-spacing="0em" style="white-space:pre"><tspan x="424.242" y="234.208">=</tspan></text><text xml:space="preserve" fill="#2a2a2a" font-family="Iowan Old Style BT" font-size="16" font-style="italic" letter-spacing="0em" style="white-space:pre"><tspan x="586.422" y="212.208">k</tspan></text><text xml:space="preserve" fill="#2a2a2a" font-family="GT America Trial" font-size="16" letter-spacing="0em" style="white-space:pre"><tspan x="601.219" y="211.936">x</tspan></text><text xml:space="preserve" fill="#2a2a2a" font-family="Iowan Old Style BT" font-size="16" font-style="italic" letter-spacing="0em" style="white-space:pre"><tspan x="616.289" y="212.208">n</tspan></text><text xml:space="preserve" fill="#000" font-family="Iowan Old Style BT" font-size="24" letter-spacing="0em" style="white-space:pre"><tspan x="217.004" y="127.312">=</tspan></text><path fill="#fff" stroke="#2a2a2a" stroke-width="3" d="M52.5 60.5h147v117h-147z"/><path fill="#fff" d="M75 58h102v122H75z"/><path fill="#fff" d="M107 102h38v34h-38z"/><text xml:space="preserve" fill="#2a2a2a" font-family="Iowan Old Style BT" font-size="24" font-style="italic" letter-spacing="0em" style="white-space:pre"><tspan x="115.289" y="126.812">M</tspan></text><path fill="#fff" stroke="#2a2a2a" stroke-width="3" d="M254.5 60.5h117v117h-117z"/><path fill="#fff" d="M277 58h72v122h-72z"/><path stroke="#ef402c" stroke-width="3" d="M314 59v120"/><path fill="#fff" d="M294 100h38v38h-38z"/><text xml:space="preserve" fill="#ef402c" font-family="Iowan Old Style BT" font-size="24" font-style="italic" letter-spacing="0em" style="white-space:pre"><tspan x="304.129" y="126.812">U</tspan></text><path fill="#fff" stroke="#2a2a2a" stroke-width="3" d="M390.5 60.5h117v91h-117z"/><path fill="#fff" d="M413 58h72v96h-72z"/><path stroke="#00a7ff" stroke-width="3" d="M396 65.5 500 145"/><path fill="#fff" d="M432 91h34v30h-34z"/><text xml:space="preserve" fill="#00a7ff" font-family="New York" font-size="24" font-style="italic" letter-spacing="0em" style="white-space:pre"><tspan x="439.629" y="114.031">Σ</tspan></text><path fill="#fff" stroke="#2a2a2a" stroke-width="3" d="M526.5 60.5h157v91h-157z"/><path fill="#fff" d="M549 58h112v96H549z"/><path stroke="#169e78" stroke-width="3" d="M533 106h144"/><path fill="#fff" d="M586 89h38v34h-38z"/><text xml:space="preserve" fill="#169e78" font-family="Iowan Old Style BT" font-size="24" font-style="italic" letter-spacing="0em" style="white-space:pre"><tspan x="596.938" y="113.812">V</tspan></text><text xml:space="preserve" fill="#169e78" font-family="GT America Mono Trial" font-size="12" font-weight="500" letter-spacing="0em" style="white-space:pre"><tspan x="615.279" y="99.952">T</tspan></text><path fill="#fff" d="m428 95.3 4.573-5.299 5.3 4.573-4.573 5.3z"/><path fill="#fff" d="m459 118.301 4.573-5.3 5.3 4.573-4.573 5.3z"/></svg>