<?xml version="1.0" encoding="UTF-8" standalone="no"?>
<!-- Created with Inkscape (http://www.inkscape.org/) -->

<svg
   xmlns:dc="http://purl.org/dc/elements/1.1/"
   xmlns:cc="http://creativecommons.org/ns#"
   xmlns:rdf="http://www.w3.org/1999/02/22-rdf-syntax-ns#"
   xmlns:svg="http://www.w3.org/2000/svg"
   xmlns="http://www.w3.org/2000/svg"
   xmlns:xlink="http://www.w3.org/1999/xlink"
   xmlns:sodipodi="http://sodipodi.sourceforge.net/DTD/sodipodi-0.dtd"
   xmlns:inkscape="http://www.inkscape.org/namespaces/inkscape"
   width="478.39288"
   height="205.53572"
   id="svg2"
   sodipodi:version="0.32"
   inkscape:version="0.48.2 r9819"
   version="1.0"
   sodipodi:docname="Plsi (1).svg"
   inkscape:output_extension="org.inkscape.output.svg.inkscape">
  <defs
     id="defs4">
    <marker
       inkscape:stockid="Arrow2Mend"
       orient="auto"
       refY="0"
       refX="0"
       id="Arrow2Mend"
       style="overflow:visible">
      <path
         id="path4157"
         style="font-size:12px;fill-rule:evenodd;stroke-width:0.625;stroke-linejoin:round"
         d="M 8.7185878,4.0337352 L -2.2072895,0.016013256 L 8.7185884,-4.0017078 C 6.97309,-1.6296469 6.9831476,1.6157441 8.7185878,4.0337352 z "
         transform="scale(-0.6,-0.6)" />
    </marker>
    <marker
       inkscape:stockid="Arrow1Lend"
       orient="auto"
       refY="0"
       refX="0"
       id="Arrow1Lend"
       style="overflow:visible">
      <path
         id="path4133"
         d="M 0,0 L 5,-5 L -12.5,0 L 5,5 L 0,0 z "
         style="fill-rule:evenodd;stroke:#000000;stroke-width:1pt;marker-start:none"
         transform="matrix(-0.8,0,0,-0.8,-10,0)" />
    </marker>
    <marker
       inkscape:stockid="Arrow2Lend"
       orient="auto"
       refY="0"
       refX="0"
       id="Arrow2Lend"
       style="overflow:visible">
      <path
         id="path4151"
         style="font-size:12px;fill-rule:evenodd;stroke-width:0.625;stroke-linejoin:round"
         d="M 8.7185878,4.0337352 L -2.2072895,0.016013256 L 8.7185884,-4.0017078 C 6.97309,-1.6296469 6.9831476,1.6157441 8.7185878,4.0337352 z "
         transform="matrix(-1.1,0,0,-1.1,-1.1,0)" />
    </marker>
    <marker
       inkscape:stockid="Arrow1Mend"
       orient="auto"
       refY="0"
       refX="0"
       id="Arrow1Mend"
       style="overflow:visible">
      <path
         id="path4139"
         d="M 0,0 L 5,-5 L -12.5,0 L 5,5 L 0,0 z "
         style="fill-rule:evenodd;stroke:#000000;stroke-width:1pt;marker-start:none"
         transform="matrix(-0.4,0,0,-0.4,-4,0)" />
    </marker>
    <linearGradient
       inkscape:collect="always"
       id="linearGradient3142">
      <stop
         style="stop-color:#ffffff;stop-opacity:1;"
         offset="0"
         id="stop3144" />
      <stop
         style="stop-color:#ffffff;stop-opacity:0;"
         offset="1"
         id="stop3146" />
    </linearGradient>
    <linearGradient
       inkscape:collect="always"
       xlink:href="#linearGradient3142"
       id="linearGradient3150"
       x1="-127.99999"
       y1="150.5"
       x2="-68.999992"
       y2="150.5"
       gradientUnits="userSpaceOnUse" />
    <linearGradient
       inkscape:collect="always"
       xlink:href="#linearGradient3142"
       id="linearGradient3152"
       x1="-14.999994"
       y1="149"
       x2="44.000004"
       y2="149"
       gradientUnits="userSpaceOnUse" />
  </defs>
  <sodipodi:namedview
     id="base"
     pagecolor="#ffffff"
     bordercolor="#666666"
     borderopacity="1.0"
     gridtolerance="10000"
     guidetolerance="10"
     objecttolerance="10"
     inkscape:pageopacity="0.0"
     inkscape:pageshadow="2"
     inkscape:zoom="1.4"
     inkscape:cx="368.38235"
     inkscape:cy="132.91811"
     inkscape:document-units="px"
     inkscape:current-layer="layer1"
     width="650px"
     height="350px"
     inkscape:showpageshadow="false"
     showgrid="true"
     inkscape:object-nodes="true"
     inkscape:object-points="true"
     inkscape:guide-points="true"
     inkscape:window-width="1272"
     inkscape:window-height="948"
     inkscape:window-x="220"
     inkscape:window-y="0"
     inkscape:window-maximized="0">
    <inkscape:grid
       id="GridFromPre046Settings"
       type="xygrid"
       originx="0px"
       originy="0px"
       spacingx="1px"
       spacingy="1px"
       color="#0000ff"
       empcolor="#0000ff"
       opacity="0.2"
       empopacity="0.4"
       empspacing="5" />
  </sodipodi:namedview>
  <metadata
     id="metadata7">
    <rdf:RDF>
      <cc:Work
         rdf:about="">
        <dc:format>image/svg+xml</dc:format>
        <dc:type
           rdf:resource="http://purl.org/dc/dcmitype/StillImage" />
      </cc:Work>
    </rdf:RDF>
  </metadata>
  <g
     inkscape:label="Layer 1"
     inkscape:groupmode="layer"
     id="layer1"
     transform="translate(-150.51784,-85.375)">
    <path
       sodipodi:type="arc"
       style="fill:url(#linearGradient3152);fill-opacity:1;stroke:#000000;stroke-width:2;stroke-miterlimit:4;stroke-dasharray:none;stroke-opacity:1"
       id="path3136"
       sodipodi:cx="71"
       sodipodi:cy="149"
       sodipodi:rx="26"
       sodipodi:ry="26"
       d="m 97,149 c 0,14.3594 -11.640597,26 -26,26 -14.359403,0 -26,-11.6406 -26,-26 0,-14.3594 11.640597,-26 26,-26 14.359403,0 26,11.6406 26,26 z"
       transform="matrix(1.3333333,0,0,1.3333333,127.99999,-22.666663)" />
    <path
       sodipodi:type="arc"
       style="fill:url(#linearGradient3150);fill-opacity:1;stroke:#000000;stroke-width:2;stroke-miterlimit:4;stroke-dasharray:none;stroke-opacity:1"
       id="path3138"
       sodipodi:cx="71"
       sodipodi:cy="149"
       sodipodi:rx="26"
       sodipodi:ry="26"
       d="m 97,149 c 0,14.3594 -11.640597,26 -26,26 -14.359403,0 -26,-11.6406 -26,-26 0,-14.3594 11.640597,-26 26,-26 14.359403,0 26,11.6406 26,26 z"
       transform="matrix(1.3333333,0,0,1.3333333,278.66665,-24.666661)" />
    <path
       sodipodi:type="arc"
       style="fill:#7f7f7f;fill-opacity:1;stroke:#000000;stroke-width:2;stroke-miterlimit:4;stroke-dasharray:none;stroke-opacity:1"
       id="path3140"
       sodipodi:cx="71"
       sodipodi:cy="149"
       sodipodi:rx="26"
       sodipodi:ry="26"
       d="m 97,149 c 0,14.3594 -11.640597,26 -26,26 -14.359403,0 -26,-11.6406 -26,-26 0,-14.3594 11.640597,-26 26,-26 14.359403,0 26,11.6406 26,26 z"
       transform="matrix(1.3333333,0,0,1.3333333,429.3333,-22.666663)" />
    <g
       id="g11284">
      <path
         style="fill:#000000;fill-opacity:1;fill-rule:evenodd;stroke:none;stroke-width:2;stroke-linecap:butt;stroke-linejoin:miter;stroke-miterlimit:4;stroke-dasharray:none;stroke-opacity:1"
         d="M 257.34375,175 L 257.34375,177 C 298.01041,177.00001 318.33333,177 328.5,177 C 333.58333,177 336.13542,177 337.40625,177 C 338.04167,177 338.34115,177 338.5,177 C 338.57943,177 338.63639,177 338.65625,177 L 338.65625,176 L 338.65625,175 C 338.65625,175 338.67708,175.00002 257.34375,175 z "
         id="path4325" />
      <path
         style="fill-rule:evenodd;stroke:#000000;stroke-width:0.8pt;marker-start:none"
         d="M 330.66664,176 L 326.66664,180 L 340.66664,176 L 326.66664,172 L 330.66664,176 z "
         id="path11290" />
    </g>
    <g
       id="g11292">
      <path
         style="fill:#000000;fill-opacity:1;fill-rule:evenodd;stroke:none;stroke-width:2;stroke-linecap:butt;stroke-linejoin:miter;stroke-miterlimit:4;stroke-dasharray:none;stroke-opacity:1"
         d="M 408,175 L 408,177 C 448.66667,177.00001 468.98958,177 479.15625,177 C 484.23958,177 486.79167,177 488.0625,177 C 488.69792,177 489.02865,177 489.1875,177 C 489.26693,177 489.29264,177 489.3125,177 C 489.32243,177 489.34127,177 489.34375,177 L 489.34375,176 L 489.34375,175 C 489.34375,175 489.33333,175.00001 408,175 z "
         id="path4327" />
      <path
         style="fill-rule:evenodd;stroke:#000000;stroke-width:0.8pt;marker-start:none"
         d="M 481.3333,176.00001 L 477.3333,180.00001 L 491.3333,176.00001 L 477.3333,172.00001 L 481.3333,176.00001 z "
         id="path11298" />
    </g>
    <rect
       style="fill:none;fill-opacity:1;stroke:#000000;stroke-width:4;stroke-miterlimit:4;stroke-dasharray:none;stroke-opacity:1"
       id="rect5300"
       width="277.48553"
       height="130.34267"
       x="311.90012"
       y="119.18581"
       rx="1.9768573e-38"
       ry="2.5235659e-38" />
    <rect
       style="fill:none;fill-opacity:1;stroke:#000000;stroke-width:4;stroke-miterlimit:4;stroke-dasharray:none;stroke-opacity:1"
       id="rect6273"
       width="474.39288"
       height="201.53572"
       x="152.51784"
       y="87.375"
       rx="3.3796609e-38"
       ry="3.9019358e-38" />
    <text
       xml:space="preserve"
       style="font-size:24px;font-style:normal;font-variant:normal;font-weight:normal;font-stretch:normal;text-align:start;line-height:125%;writing-mode:lr-tb;text-anchor:start;fill:#000000;fill-opacity:1;stroke:none;font-family:Verdana"
       x="367.03448"
       y="234.85156"
       id="text10173"
       sodipodi:linespacing="125%"><tspan
         sodipodi:role="line"
         id="tspan10175"
         x="367.03448"
         y="234.85156">c</tspan></text>
    <text
       xml:space="preserve"
       style="font-size:24px;font-style:normal;font-weight:normal;fill:#000000;fill-opacity:1;stroke:none;stroke-width:1px;stroke-linecap:butt;stroke-linejoin:miter;stroke-opacity:1;font-family:Verdana;font-stretch:normal;font-variant:normal;text-anchor:start;text-align:start;writing-mode:lr;line-height:125%"
       x="514.18549"
       y="234.85156"
       id="text10177"
       sodipodi:linespacing="125%"><tspan
         sodipodi:role="line"
         id="tspan10179"
         x="514.18549"
         y="234.85156">w</tspan></text>
    <text
       xml:space="preserve"
       style="font-size:24px;font-style:normal;font-weight:normal;fill:#000000;fill-opacity:1;stroke:none;stroke-width:1px;stroke-linecap:butt;stroke-linejoin:miter;stroke-opacity:1;font-family:Verdana;font-stretch:normal;font-variant:normal;text-anchor:start;text-align:start;writing-mode:lr;line-height:125%"
       x="564.57141"
       y="240.71429"
       id="text10181"
       sodipodi:linespacing="125%"><tspan
         sodipodi:role="line"
         id="tspan10183"
         x="564.57141"
         y="240.71429">N</tspan></text>
    <text
       xml:space="preserve"
       style="font-size:24px;font-style:normal;font-weight:normal;fill:#000000;fill-opacity:1;stroke:none;stroke-width:1px;stroke-linecap:butt;stroke-linejoin:miter;stroke-opacity:1;font-family:Verdana;font-stretch:normal;font-variant:normal;text-anchor:start;text-align:start;writing-mode:lr;line-height:125%"
       x="599.71429"
       y="280.14285"
       id="text10185"
       sodipodi:linespacing="125%"><tspan
         sodipodi:role="line"
         id="tspan10187"
         x="599.71429"
         y="280.14285">M</tspan></text>
    <text
       xml:space="preserve"
       style="font-size:24px;font-style:normal;font-variant:normal;font-weight:normal;font-stretch:normal;text-align:start;line-height:125%;writing-mode:lr-tb;text-anchor:start;fill:#000000;fill-opacity:1;stroke:none;font-family:Verdana"
       x="217.92642"
       y="234.85156"
       id="text10189"
       sodipodi:linespacing="125%"><tspan
         sodipodi:role="line"
         id="tspan10191"
         x="217.92642"
         y="234.85156">d</tspan></text>
  </g>
</svg>
